<?xml version="1.0" encoding="UTF-8" standalone="no"?>
<!DOCTYPE svg PUBLIC "-//W3C//DTD SVG 1.1//EN"
 "http://www.w3.org/Graphics/SVG/1.1/DTD/svg11.dtd">
<!-- Generated by graphviz version 2.40.1 (20161225.0304)
 -->
<!-- Title: base Pages: 1 -->
<svg width="896pt" height="488pt"
 viewBox="0.00 0.00 896.00 487.95" xmlns="http://www.w3.org/2000/svg" xmlns:xlink="http://www.w3.org/1999/xlink">
<g id="graph0" class="graph" transform="scale(1 1) rotate(0) translate(4 483.9533)">
<title>base</title>
<polygon fill="#ffffff" stroke="transparent" points="-4,4 -4,-483.9533 892,-483.9533 892,4 -4,4"/>
<g id="clust1" class="cluster">
<title>clusterad_export</title>
<polygon fill="none" stroke="#000000" points="114,-358.9533 114,-435.9533 443,-435.9533 443,-358.9533 114,-358.9533"/>
<text text-anchor="middle" x="278.5" y="-420.7533" font-family="Times,serif" font-size="14.00" fill="#000000">ad_export.run()</text>
</g>
<g id="clust3" class="cluster">
<title>clusterform</title>
<polygon fill="none" stroke="#000000" points="8,-8 8,-350.9533 880,-350.9533 880,-8 8,-8"/>
<text text-anchor="middle" x="444" y="-335.7533" font-family="Times,serif" font-size="14.00" fill="#000000">ad_export/form.py</text>
</g>
<g id="clust5" class="cluster">
<title>clusterform_run</title>
<polygon fill="none" stroke="#000000" points="16,-16 16,-237 872,-237 872,-16 16,-16"/>
<text text-anchor="middle" x="444" y="-221.8" font-family="Times,serif" font-size="14.00" fill="#000000">run()</text>
</g>
<g id="clust7" class="cluster">
<title>clusterform_loop</title>
<polygon fill="none" stroke="#000000" points="24,-24 24,-162 864,-162 864,-24 24,-24"/>
<text text-anchor="middle" x="444" y="-146.8" font-family="Times,serif" font-size="14.00" fill="#000000">Employee Loop</text>
</g>
<!-- start -->
<g id="node1" class="node">
<title>start</title>
<polygon fill="none" stroke="#00ff00" points="198,-479.9533 151.2456,-461.9533 198,-443.9533 244.7544,-461.9533 198,-479.9533"/>
<polyline fill="none" stroke="#00ff00" points="162.4444,-466.2647 162.4444,-457.6419 "/>
<polyline fill="none" stroke="#00ff00" points="186.8013,-448.2647 209.1987,-448.2647 "/>
<polyline fill="none" stroke="#00ff00" points="233.5556,-457.6419 233.5556,-466.2647 "/>
<polyline fill="none" stroke="#00ff00" points="209.1987,-475.6419 186.8013,-475.6419 "/>
<text text-anchor="middle" x="198" y="-458.2533" font-family="Times,serif" font-size="14.00" fill="#000000">start</text>
</g>
<!-- load -->
<g id="node2" class="node">
<title>load</title>
<path fill="none" stroke="#000000" d="M261.5,-404.9533C261.5,-404.9533 134.5,-404.9533 134.5,-404.9533 128.5,-404.9533 122.5,-398.9533 122.5,-392.9533 122.5,-392.9533 122.5,-378.9533 122.5,-378.9533 122.5,-372.9533 128.5,-366.9533 134.5,-366.9533 134.5,-366.9533 261.5,-366.9533 261.5,-366.9533 267.5,-366.9533 273.5,-372.9533 273.5,-378.9533 273.5,-378.9533 273.5,-392.9533 273.5,-392.9533 273.5,-398.9533 267.5,-404.9533 261.5,-404.9533"/>
<text text-anchor="middle" x="198" y="-389.7533" font-family="Times,serif" font-size="14.00" fill="#000000">Load Form</text>
<text text-anchor="middle" x="198" y="-374.7533" font-family="Times,serif" font-size="14.00" fill="#000000">from configuration</text>
</g>
<!-- start&#45;&gt;load -->
<g id="edge9" class="edge">
<title>start&#45;&gt;load</title>
<path fill="none" stroke="#000000" d="M198,-443.9424C198,-443.7847 198,-443.6264 198,-443.4675"/>
<polygon fill="#000000" stroke="#000000" points="201.5001,-445.9504 198,-435.9505 194.5001,-445.9505 201.5001,-445.9504"/>
</g>
<!-- call -->
<g id="node3" class="node">
<title>call</title>
<path fill="none" stroke="#000000" d="M422.5,-403.9533C422.5,-403.9533 303.5,-403.9533 303.5,-403.9533 297.5,-403.9533 291.5,-397.9533 291.5,-391.9533 291.5,-391.9533 291.5,-379.9533 291.5,-379.9533 291.5,-373.9533 297.5,-367.9533 303.5,-367.9533 303.5,-367.9533 422.5,-367.9533 422.5,-367.9533 428.5,-367.9533 434.5,-373.9533 434.5,-379.9533 434.5,-379.9533 434.5,-391.9533 434.5,-391.9533 434.5,-397.9533 428.5,-403.9533 422.5,-403.9533"/>
<text text-anchor="middle" x="363" y="-382.2533" font-family="Times,serif" font-size="14.00" fill="#000000">Form.form().run()</text>
</g>
<!-- load&#45;&gt;call -->
<g id="edge1" class="edge">
<title>load&#45;&gt;call</title>
<path fill="none" stroke="#000000" d="M273.7324,-385.9533C276.1842,-385.9533 278.636,-385.9533 281.0878,-385.9533"/>
<polygon fill="#000000" stroke="#000000" points="281.1675,-389.4534 291.1675,-385.9533 281.1675,-382.4534 281.1675,-389.4534"/>
</g>
<!-- form_init -->
<g id="node4" class="node">
<title>form_init</title>
<ellipse fill="none" stroke="#000000" cx="234" cy="-282.4767" rx="217.578" ry="37.4533"/>
<text text-anchor="middle" x="234" y="-293.7767" font-family="Times,serif" font-size="14.00" fill="#000000">__init__()</text>
<text text-anchor="middle" x="234" y="-278.7767" font-family="Times,serif" font-size="14.00" fill="#000000">self.employees = config.get_employees()</text>
<text text-anchor="middle" x="234" y="-263.7767" font-family="Times,serif" font-size="14.00" fill="#000000">self._ad = AD()</text>
</g>
<!-- call&#45;&gt;form_init -->
<g id="edge10" class="edge">
<title>call&#45;&gt;form_init</title>
<path fill="none" stroke="#000000" d="M332.6607,-361.6168C319.2267,-350.8408 303.0138,-337.8357 287.647,-325.5093"/>
<polygon fill="#000000" stroke="#000000" points="330.5394,-364.4021 340.5299,-367.9291 334.9194,-358.9417 330.5394,-364.4021"/>
<polygon fill="#000000" stroke="#000000" points="289.6981,-322.6677 279.7075,-319.1407 285.318,-328.1281 289.6981,-322.6677"/>
</g>
<!-- form_loop -->
<g id="node5" class="node">
<title>form_loop</title>
<path fill="none" stroke="#000000" d="M421.5,-206C421.5,-206 318.5,-206 318.5,-206 312.5,-206 306.5,-200 306.5,-194 306.5,-194 306.5,-182 306.5,-182 306.5,-176 312.5,-170 318.5,-170 318.5,-170 421.5,-170 421.5,-170 427.5,-170 433.5,-176 433.5,-182 433.5,-182 433.5,-194 433.5,-194 433.5,-200 427.5,-206 421.5,-206"/>
<text text-anchor="middle" x="370" y="-184.3" font-family="Times,serif" font-size="14.00" fill="#000000">Employee Loop</text>
</g>
<!-- call&#45;&gt;form_loop -->
<g id="edge11" class="edge">
<title>call&#45;&gt;form_loop</title>
<path fill="none" stroke="#000000" d="M434.5518,-368.2423C449.1534,-363.1727 461.4632,-357.2865 466,-350.9533 493.4231,-312.6718 493.2856,-283.3797 466,-245 462.0805,-239.4869 457.8587,-239.6282 452.8794,-239.3295"/>
<polygon fill="#000000" stroke="#000000" points="453.5364,-235.8885 443,-237 451.9298,-242.7016 453.5364,-235.8885"/>
</g>
<!-- form_msg -->
<g id="node6" class="node">
<title>form_msg</title>
<path fill="none" stroke="#000000" d="M714.5,-206C714.5,-206 463.5,-206 463.5,-206 457.5,-206 451.5,-200 451.5,-194 451.5,-194 451.5,-182 451.5,-182 451.5,-176 457.5,-170 463.5,-170 463.5,-170 714.5,-170 714.5,-170 720.5,-170 726.5,-176 726.5,-182 726.5,-182 726.5,-194 726.5,-194 726.5,-200 720.5,-206 714.5,-206"/>
<text text-anchor="middle" x="589" y="-184.3" font-family="Times,serif" font-size="14.00" fill="#000000">if new_users send email notification</text>
</g>
<!-- form_loop&#45;&gt;form_msg -->
<g id="edge7" class="edge">
<title>form_loop&#45;&gt;form_msg</title>
<path fill="none" stroke="#000000" d="M433.7324,-188C436.2059,-188 438.6793,-188 441.1527,-188"/>
<polygon fill="#000000" stroke="#000000" points="441.3214,-191.5001 451.3213,-188 441.3213,-184.5001 441.3214,-191.5001"/>
</g>
<!-- ad_exist -->
<g id="node8" class="node">
<title>ad_exist</title>
<path fill="none" stroke="#000000" d="M216,-100.5C216,-100.5 44,-100.5 44,-100.5 38,-100.5 32,-94.5 32,-88.5 32,-88.5 32,-74.5 32,-74.5 32,-68.5 38,-62.5 44,-62.5 44,-62.5 216,-62.5 216,-62.5 222,-62.5 228,-68.5 228,-74.5 228,-74.5 228,-88.5 228,-88.5 228,-94.5 222,-100.5 216,-100.5"/>
<text text-anchor="middle" x="130" y="-85.3" font-family="Times,serif" font-size="14.00" fill="#000000">Check if employee exists</text>
<text text-anchor="middle" x="130" y="-70.3" font-family="Times,serif" font-size="14.00" fill="#000000">user=get_user</text>
</g>
<!-- form_loop&#45;&gt;ad_exist -->
<g id="edge5" class="edge">
<title>form_loop&#45;&gt;ad_exist</title>
<path fill="none" stroke="#000000" d="M306.3071,-181.5237C283.7375,-177.6944 258.5994,-171.6204 237,-162 207.005,-148.6401 177.5352,-125.5159 157.1427,-107.4697"/>
<polygon fill="#000000" stroke="#000000" points="159.2887,-104.6917 149.5216,-100.5863 154.5967,-109.8865 159.2887,-104.6917"/>
</g>
<!-- form_post -->
<g id="node7" class="node">
<title>form_post</title>
<path fill="none" stroke="#000000" d="M851.5,-206C851.5,-206 756.5,-206 756.5,-206 750.5,-206 744.5,-200 744.5,-194 744.5,-194 744.5,-182 744.5,-182 744.5,-176 750.5,-170 756.5,-170 756.5,-170 851.5,-170 851.5,-170 857.5,-170 863.5,-176 863.5,-182 863.5,-182 863.5,-194 863.5,-194 863.5,-200 857.5,-206 851.5,-206"/>
<text text-anchor="middle" x="804" y="-184.3" font-family="Times,serif" font-size="14.00" fill="#000000">self.run_post()</text>
</g>
<!-- form_msg&#45;&gt;form_post -->
<g id="edge8" class="edge">
<title>form_msg&#45;&gt;form_post</title>
<path fill="none" stroke="#000000" d="M726.7344,-188C729.1961,-188 731.6578,-188 734.1195,-188"/>
<polygon fill="#000000" stroke="#000000" points="734.2399,-191.5001 744.2399,-188 734.2398,-184.5001 734.2399,-191.5001"/>
</g>
<!-- ad_create -->
<g id="node9" class="node">
<title>ad_create</title>
<path fill="none" stroke="#000000" d="M548,-123C548,-123 258,-123 258,-123 252,-123 246,-117 246,-111 246,-111 246,-52 246,-52 246,-46 252,-40 258,-40 258,-40 548,-40 548,-40 554,-40 560,-46 560,-52 560,-52 560,-111 560,-111 560,-117 554,-123 548,-123"/>
<text text-anchor="middle" x="403" y="-107.8" font-family="Times,serif" font-size="14.00" fill="#000000">If employee doens&#39;t exist</text>
<text text-anchor="middle" x="403" y="-92.8" font-family="Times,serif" font-size="14.00" fill="#000000">employee = self.new_user_pre(employee)</text>
<text text-anchor="middle" x="403" y="-77.8" font-family="Times,serif" font-size="14.00" fill="#000000">_ad.create_user</text>
<text text-anchor="middle" x="403" y="-62.8" font-family="Times,serif" font-size="14.00" fill="#000000">self.new_user_post</text>
<text text-anchor="middle" x="403" y="-47.8" font-family="Times,serif" font-size="14.00" fill="#000000">add to self.new_users</text>
</g>
<!-- ad_exist&#45;&gt;ad_create -->
<g id="edge2" class="edge">
<title>ad_exist&#45;&gt;ad_create</title>
<path fill="none" stroke="#000000" d="M228.1094,-81.5C230.6072,-81.5 233.105,-81.5 235.6029,-81.5"/>
<polygon fill="#000000" stroke="#000000" points="235.8717,-85.0001 245.8717,-81.5 235.8717,-78.0001 235.8717,-85.0001"/>
</g>
<!-- ad_update -->
<g id="node10" class="node">
<title>ad_update</title>
<path fill="none" stroke="#000000" d="M843.5,-131C843.5,-131 590.5,-131 590.5,-131 584.5,-131 578.5,-125 578.5,-119 578.5,-119 578.5,-44 578.5,-44 578.5,-38 584.5,-32 590.5,-32 590.5,-32 843.5,-32 843.5,-32 849.5,-32 855.5,-38 855.5,-44 855.5,-44 855.5,-119 855.5,-119 855.5,-125 849.5,-131 843.5,-131"/>
<text text-anchor="middle" x="717" y="-115.8" font-family="Times,serif" font-size="14.00" fill="#000000">If employee exist</text>
<text text-anchor="middle" x="717" y="-84.8" font-family="Times,serif" font-size="14.00" fill="#000000">update_user</text>
<text text-anchor="middle" x="717" y="-69.8" font-family="Times,serif" font-size="14.00" fill="#000000">update_user_extra</text>
<text text-anchor="middle" x="717" y="-54.8" font-family="Times,serif" font-size="14.00" fill="#000000">update_groups</text>
<text text-anchor="middle" x="717" y="-39.8" font-family="Times,serif" font-size="14.00" fill="#000000">merge pending and employee object</text>
</g>
<!-- ad_exist&#45;&gt;ad_update -->
<g id="edge3" class="edge">
<title>ad_exist&#45;&gt;ad_update</title>
<path fill="none" stroke="#000000" d="M146.4497,-100.7245C167.0081,-122.8296 204.5662,-157.2071 246,-166 263.0644,-169.6213 542.9356,-169.6213 560,-166 586.3126,-160.4161 612.852,-148.8866 636.4323,-136.0914"/>
<polygon fill="#000000" stroke="#000000" points="638.2896,-139.0631 645.3181,-131.1352 634.8798,-132.9497 638.2896,-139.0631"/>
</g>
<!-- ad_create&#45;&gt;ad_update -->
<g id="edge4" class="edge">
<title>ad_create&#45;&gt;ad_update</title>
<path fill="none" stroke="#000000" d="M560.3066,-81.5C562.9399,-81.5 565.5731,-81.5 568.2063,-81.5"/>
<polygon fill="#000000" stroke="#000000" points="568.3631,-85.0001 578.3631,-81.5 568.3631,-78.0001 568.3631,-85.0001"/>
</g>
<!-- ad_update&#45;&gt;form_loop -->
<g id="edge6" class="edge">
<title>ad_update&#45;&gt;form_loop</title>
<path fill="none" stroke="#000000" d="M640.6282,-131.2081C618.3752,-143.3924 593.4504,-154.9484 569,-162 518.0332,-176.699 500.3906,-163.1354 443.7941,-170.1793"/>
<polygon fill="#000000" stroke="#000000" points="442.9813,-166.759 433.5664,-171.6181 443.9565,-173.6908 442.9813,-166.759"/>
</g>
</g>
</svg>
